<?xml version="1.0" standalone="no"?>
<!DOCTYPE svg PUBLIC "-//W3C//DTD SVG 20010904//EN"
 "http://www.w3.org/TR/2001/REC-SVG-20010904/DTD/svg10.dtd">
<svg version="1.0" xmlns="http://www.w3.org/2000/svg"
 width="295.000000pt" height="295.000000pt" viewBox="0 0 295.000000 295.000000"
 preserveAspectRatio="xMidYMid meet">
<metadata>
Created by potrace 1.11, written by Peter Selinger 2001-2013
</metadata>
<g transform="translate(0.000000,295.000000) scale(0.100000,-0.100000)"
fill="#000000" stroke="none">
<path d="M2203 2788 c-32 -29 -63 -57 -69 -63 -6 -5 -40 -37 -75 -70 -120
-113 -344 -322 -381 -356 l-38 -34 0 -776 0 -777 280 -281 c154 -154 285 -281
292 -281 7 0 65 48 129 108 63 59 142 131 175 161 171 155 295 271 348 325
l60 59 -70 65 c-219 206 -272 252 -287 252 -7 -1 -43 -30 -82 -66 -270 -254
-272 -255 -308 -228 -14 10 -31 28 -37 39 -7 14 -10 232 -8 719 l3 698 214
-196 c118 -108 218 -196 222 -196 8 0 180 154 294 262 l70 68 -85 83 c-99 96
-522 485 -562 516 l-26 21 -59 -52z"/>
<path d="M359 2811 c-8 -9 -88 -86 -176 -173 l-162 -156 90 -93 89 -93 1 -741
c1 -407 1 -767 1 -799 0 -43 -5 -63 -16 -71 -42 -31 -166 -148 -166 -157 0 -6
80 -88 178 -184 l177 -173 301 -1 300 0 110 102 c60 56 164 153 231 216 67 62
134 124 148 137 33 28 32 -11 40 981 l5 721 -81 79 c-45 43 -91 88 -103 99
-12 11 -94 89 -183 173 l-161 152 -303 -1 c-265 -2 -306 -4 -320 -18z m519
-626 l131 -130 6 -566 5 -566 -37 -33 c-21 -18 -67 -61 -103 -94 -145 -136
-173 -158 -181 -144 -5 7 -9 395 -9 861 l0 849 29 -24 c16 -12 87 -81 159
-153z"/>
</g>
</svg>
